<!-- Custom kkrepo Java archive icon. File outline adapted from Lucide v1.24.0 (ISC). -->
<svg
  xmlns="http://www.w3.org/2000/svg"
  width="24"
  height="24"
  viewBox="0 0 24 24"
  fill="none"
  stroke="currentColor"
  stroke-width="2"
  stroke-linecap="round"
  stroke-linejoin="round"
>
  <path d="M6 22a2 2 0 0 1-2-2V4a2 2 0 0 1 2-2h8a2.4 2.4 0 0 1 1.704.706l3.588 3.588A2.4 2.4 0 0 1 20 8v12a2 2 0 0 1-2 2z" />
  <path d="M14 2v5a1 1 0 0 0 1 1h5" />
  <path d="M8.5 11.5c-.7-.7.7-1.1 0-1.8" />
  <path d="M12 11.5c-.7-.7.7-1.1 0-1.8" />
  <path d="M7 14h7v1.5a3.5 3.5 0 0 1-3.5 3.5A3.5 3.5 0 0 1 7 15.5z" />
  <path d="M14 15h.5a1.5 1.5 0 0 1 0 3H13" />
</svg>
